<svg viewBox="0 0 2048 2048" xmlns="http://www.w3.org/2000/svg">
<rect fill="yellow" height="2048" stroke="none" width="2048" x="0" y="0"/>
<circle cx="1024" cy="1549" fill="none" r="325" stroke="black" stroke-width="65"/>
<circle cx="1024" cy="1939" fill="none" r="48.75" stroke="red" stroke-width="29.25px"/>
<path d="M1454.7506,1368.8525 A357.5,357.5,0,0,0,1454.7506,1368.8525 A94.25,94.25,0,1,1,1643.2494,1368.8525 A357.5,357.5,0,0,0,1894.791,933.2541 A94.25,94.25,0,1,1,1800.5691,769.99365 A357.5,357.5,0,0,0,1297.5162,769.9091 A94.25,94.25,0,1,1,1203.2395,933.13794 A357.5,357.5,0,0,0,1454.7506,1368.8525 z" fill="black" stroke="none" stroke-width="0"/>
<path d="M1438.0839,1294.6545 A292.5,292.5,0,0,0,1438.0839,1294.6545 A133.25,133.25,0,0,1,1659.9161,1294.6545 A292.5,292.5,0,0,0,1838.8584,984.7777 A133.25,133.25,0,0,1,1727.9744,792.64655 A292.5,292.5,0,0,0,1370.1033,792.5865 A133.25,133.25,0,0,1,1259.1549,984.6803 A292.5,292.5,0,0,0,1438.0839,1294.6545 z" fill="green" stroke="none" stroke-width="0"/>
<circle cx="1549" cy="1219" fill="none" r="48.75" stroke="red" stroke-width="29.25px"/>
<circle cx="1613.2280813486852" cy="1274.618073804024" fill="blue" r="25" stroke="none"/>
<circle cx="1549" cy="1254.75" fill="blue" r="25" stroke="none"/>
<circle cx="1733.9579643900531" cy="843.0988757368809" fill="blue" r="25" stroke="none"/>
<circle cx="1748.8547373243355" cy="908.6585656885571" fill="blue" r="25" stroke="none"/>
<circle cx="1798.1673600635472" cy="954.3559619928942" fill="blue" r="25" stroke="none"/>
<path d="M1024,856.5 A357.5,357.5,0,0,0,1378.6196,453.71002 A94.25,94.25,0,1,1,1306.29,279.64053 A357.5,357.5,0,0,0,741.77136,279.5615 A94.25,94.25,0,1,1,669.39307,453.61075 A357.5,357.5,0,0,0,1024,856.5 z" fill="black" stroke="none" stroke-width="0"/>
<path d="M1024,791.5 A292.5,292.5,0,0,0,1316.4965,497.5719 A133.25,133.25,0,0,1,1231.3763,292.72034 A292.5,292.5,0,0,0,816.6814,292.6623 A133.25,133.25,0,0,1,731.5039,497.49002 A292.5,292.5,0,0,0,1024,791.5 z" fill="green" stroke="none" stroke-width="0"/>
<circle cx="1384.1462890624161" cy="349.3515771063038" fill="none" r="48.75" stroke="red" stroke-width="29.25px"/>
<circle cx="1230.7885594183879" cy="343.52280860318933" fill="blue" r="25" stroke="none"/>
<circle cx="1237.0865543619295" cy="410.4580164545631" fill="blue" r="25" stroke="none"/>
<circle cx="1280.0789752097662" cy="462.1459119433329" fill="blue" r="25" stroke="none"/>
<circle cx="723.9130135605401" cy="374.20897239912074" fill="none" r="48.75" stroke="red" stroke-width="29.25px"/>
<circle cx="716.7415430079781" cy="479.95442287792173" fill="purple" r="20" stroke="none"/>
<circle cx="719.4232665064359" cy="479.6657204797429" fill="purple" r="20" stroke="none"/>
<circle cx="818.1399457287537" cy="385.241950865332" fill="purple" r="20" stroke="none"/>
<circle cx="1024" cy="612.75" fill="none" r="113.74999999999999" stroke="black" stroke-width="39px"/>
<circle cx="1088.2280813486852" cy="518.8680738040241" fill="blue" r="25" stroke="none"/>
<path d="M404.75067,1368.8525 A357.5,357.5,0,0,0,404.75067,1368.8525 A94.25,94.25,0,1,1,593.2493,1368.8525 A357.5,357.5,0,1,0,404.75067,1368.8525 z" fill="black" stroke="none" stroke-width="0"/>
<path d="M388.0838,1294.6545 A292.5,292.5,0,0,0,388.0838,1294.6545 A133.25,133.25,0,0,1,609.9162,1294.6545 A292.5,292.5,0,1,0,388.0838,1294.6545 z" fill="green" stroke="none" stroke-width="0"/>
<circle cx="499" cy="1219" fill="none" r="48.75" stroke="red" stroke-width="29.25px"/>
<circle cx="1024" cy="1024" fill="none" r="1020" stroke="black" stroke-width="20"/>
<line stroke="black" stroke-width="8" x1="818.1399457287537" x2="1937.3588547695279" y1="385.241950865332" y2="569.934363319468"/>
<line stroke="black" stroke-width="8" x1="716.7415430079781" x2="865.1941757758666" y1="479.95442287792173" y2="2031.5617649516548"/>
<line stroke="black" stroke-width="8" x1="719.4232665064359" x2="905.7970182503036" y1="479.6657204797429" y2="2037.12785723495"/>
</svg>