<svg viewBox="0 0 512 512" xmlns="http://www.w3.org/2000/svg">
<path d="M256,458 A202,202,0,0,0,378.53613,416.5892 A27,27,0,1,1,403.141,394.39627 A202,202,0,0,0,410.0693,125.360634 A27,27,0,1,1,386.63937,101.93068 A202,202,0,0,0,125.8025,101.55709 A27,27,0,0,1,89.53919,141.56749 A202,202,0,0,0,171.40497,439.43304 A27,27,0,1,1,202.53104,450.79495 A202,202,0,0,0,256,458 z" fill="green" stroke="none" stroke-width="0"/>
<path d="M256,454 A198,198,0,0,0,365.7091,420.8269 A33,33,0,1,1,408.67493,382.07288 A198,198,0,0,0,414.9616,137.95255 A33,33,0,1,1,374.04745,97.038376 A198,198,0,0,0,133.23582,100.652145 A33,33,0,0,1,89.367195,149.05373 A198,198,0,0,0,161.6582,430.07938 A33,33,0,1,1,216.01158,449.9199 A198,198,0,0,0,256,454 z" fill="yellow" stroke="none" stroke-width="0"/>
<circle cx="475.7350003651379" cy="245.205111647968" fill="blue" r="15" stroke="black" stroke-width="3"/>
<circle cx="256" cy="56" fill="blue" r="0" stroke="black" stroke-width="3"/>
<circle cx="76.27454796016997" cy="265.9379016436447" fill="blue" r="15" stroke="black" stroke-width="3"/>
<circle cx="121.89930148002063" cy="352.1353351086561" fill="blue" r="30" stroke="black" stroke-width="3"/>
<circle cx="383.27922061357856" cy="158.72077938642144" fill="black" r="10" stroke="none" stroke-width="0"/>
<circle cx="404.492424049175" cy="149.93398282201787" fill="black" r="10" stroke="none" stroke-width="0"/>
<circle cx="413.27922061357856" cy="128.72077938642144" fill="black" r="10" stroke="none" stroke-width="0"/>
<circle cx="121.89930148002063" cy="382.1353351086561" fill="black" r="10" stroke="none" stroke-width="0"/>
<circle cx="143.11250491561705" cy="373.3485385442525" fill="black" r="10" stroke="none" stroke-width="0"/>
<circle cx="151.89930148002063" cy="352.1353351086561" fill="black" r="10" stroke="none" stroke-width="0"/>
<path d="M107.80978,151.6882 L256,256" fill="none" stroke="black" stroke-width="1"/>
<path d="M129.02298,142.90141 L256,256" fill="none" stroke="black" stroke-width="1"/>
<path d="M194.2784,455.0871 L256,256" fill="none" stroke="black" stroke-width="1"/>
<path d="M215.4916,446.3003 L256,256" fill="none" stroke="black" stroke-width="1"/>
<path d="M224.2784,425.0871 L256,256" fill="none" stroke="black" stroke-width="1"/>
<circle cx="256" cy="256" fill="none" r="250" stroke="black" stroke-width="6"/>
</svg>