<svg viewBox="0 0 512 512" xmlns="http://www.w3.org/2000/svg">
<path d="M256,465 A89,89,0,0,0,333.19363,331.7039 A32,32,0,1,1,333.19363,331.7039 A89,89,0,1,0,225.4821,459.60416 A28,28,0,1,1,225.4821,459.60416 A89,89,0,0,0,256,465 z" fill="green" stroke="black" stroke-width="0"/>
<path d="M256,447 A71,71,0,0,0,326.88718,371.9988 A28,28,0,1,1,295.22217,316.81705 A71,71,0,0,0,204.3524,424.71884 A32,32,0,1,1,231.65425,442.69547 A71,71,0,0,0,256,447 z" fill="yellow" stroke="black" stroke-width="0"/>
<circle cx="178.31188148300743" cy="313.03527780344206" fill="blue" r="15" stroke="black" stroke-width="3"/>
<path d="M256,225 A89,89,0,0,0,341.08353,162.11119 A32,32,0,0,1,340.10226,106.88287 A89,89,0,1,0,225.4821,219.60417 A28,28,0,1,1,225.4821,219.60417 A89,89,0,0,0,256,225 z" fill="green" stroke="black" stroke-width="0"/>
<path d="M256,207 A71,71,0,0,0,321.59912,163.16168 A28,28,0,0,1,320.59283,106.52519 A71,71,0,1,0,204.3524,184.71884 A32,32,0,1,1,231.65425,202.69547 A71,71,0,0,0,256,207 z" fill="yellow" stroke="black" stroke-width="0"/>
<circle cx="253.05593954035493" cy="76.07227262768966" fill="blue" r="15" stroke="black" stroke-width="3"/>
<circle cx="212.06870119107276" cy="126.25110339778153" fill="blue" r="30" stroke="black" stroke-width="3"/>
<circle cx="256" cy="256" fill="none" r="250" stroke="black" stroke-width="6"/>
</svg>