<svg viewBox="0 0 512 512" xmlns="http://www.w3.org/2000/svg">
<path d="M256,456 A80,80,0,0,0,333.151,354.84048 A30,30,0,1,1,313.48904,320.3672 A80,80,0,1,0,210.78532,441.99722 A30,30,0,1,1,228.56818,451.1498 A80,80,0,0,0,256,456 z" fill="green" stroke="black" stroke-width="9"/>
<circle cx="174.1737738481471" cy="318.515491532537" fill="blue" r="15" stroke="black" stroke-width="3"/>
<path d="M256,216 A80,80,0,0,0,330.00278,166.39063 A30,30,0,0,1,330.73572,107.459305 A80,80,0,1,0,210.78532,201.99722 A30,30,0,1,1,228.56818,211.14981 A80,80,0,0,0,256,216 z" fill="green" stroke="black" stroke-width="9"/>
<circle cx="253.98310717515474" cy="76.03390838704686" fill="blue" r="15" stroke="black" stroke-width="3"/>
<circle cx="212.23938965159218" cy="125.5114833300975" fill="blue" r="30" stroke="black" stroke-width="3"/>
<circle cx="256" cy="256" fill="none" r="250" stroke="black" stroke-width="6"/>
</svg>