<svg viewBox="0 0 512 512" xmlns="http://www.w3.org/2000/svg">
<path d="M239.45041,457.33334 A83,83,0,0,0,239.45041,457.33334 A27,27,0,1,1,272.5496,457.33334 A83,83,0,1,0,193.83806,321.00098 A27,27,0,1,1,177.28847,349.6657 A83,83,0,0,0,239.45041,457.33334 z" fill="green" stroke="none" stroke-width="0"/>
<path d="M224.65958,446.33334 A77,77,0,0,0,224.65958,446.33334 A33,33,0,1,1,287.34042,446.33334 A77,77,0,1,0,210.75977,313.69174 A33,33,0,1,1,179.41933,367.97495 A77,77,0,0,0,224.65958,446.33334 z" fill="yellow" stroke="none" stroke-width="0"/>
<circle cx="346.93266739736606" cy="323.5" fill="none" r="15" stroke="black" stroke-width="6"/>
<circle cx="204.03847577293368" cy="376" fill="black" r="10" stroke="none" stroke-width="0"/>
<circle cx="230.01923788646684" cy="331" fill="black" r="10" stroke="none" stroke-width="0"/>
<circle cx="178.05771365940052" cy="331" fill="black" r="10" stroke="none" stroke-width="0"/>
<path d="M229.35954,214.60843 A83,83,0,0,0,229.35954,214.60843 A27,27,0,0,1,282.64047,214.60843 A83,83,0,1,0,174.66667,119.45041 A27,27,0,1,1,174.66667,152.54959 A83,83,0,0,0,229.35954,214.60843 z" fill="green" stroke="none" stroke-width="0"/>
<path d="M225.3954,206.65663 A77,77,0,0,0,225.3954,206.65663 A33,33,0,0,1,286.60458,206.65663 A77,77,0,1,0,185.66667,104.65958 A33,33,0,1,1,185.66667,167.34042 A77,77,0,0,0,225.3954,206.65663 z" fill="yellow" stroke="none" stroke-width="0"/>
<circle cx="256" cy="186" fill="none" r="15" stroke="black" stroke-width="6"/>
<circle cx="256" cy="91" fill="none" r="30" stroke="black" stroke-width="6"/>
<circle cx="256" cy="121" fill="black" r="10" stroke="none" stroke-width="0"/>
<circle cx="286" cy="91" fill="black" r="10" stroke="none" stroke-width="0"/>
<circle cx="256" cy="61" fill="black" r="10" stroke="none" stroke-width="0"/>
<path d="M256,246 L250,250" fill="none" stroke="black" stroke-width="1"/>
<path d="M286,216 L250,250" fill="none" stroke="black" stroke-width="1"/>
<path d="M196,166 L250,250" fill="none" stroke="black" stroke-width="1"/>
<path d="M226,136 L250,250" fill="none" stroke="black" stroke-width="1"/>
<path d="M196,106 L250,250" fill="none" stroke="black" stroke-width="1"/>
<circle cx="256" cy="256" fill="none" r="250" stroke="black" stroke-width="6"/>
</svg>