<svg viewBox="0 0 512 512" xmlns="http://www.w3.org/2000/svg">
<path d="M256,459 A83,83,0,0,0,285.07324,453.74155 A27,27,0,1,1,313.14114,436.19876 A83,83,0,1,0,183.6894,335.25473 A27,27,0,1,1,173.51683,366.75192 A83,83,0,0,0,256,459 z" fill="green" stroke="none" stroke-width="0"/>
<path d="M256,453 A77,77,0,0,0,266.70065,452.25284 A33,33,0,1,1,319.8536,419.0316 A77,77,0,0,0,198.70277,324.56046 A33,33,0,1,1,179.43869,384.2076 A77,77,0,0,0,256,453 z" fill="yellow" stroke="none" stroke-width="0"/>
<path d="M251.04388,452.84033 A77,77,0,0,0,258.79398,452.94928 A39,39,0,1,1,323.9442,412.22958 A77,77,0,0,0,327.24228,405.2154 A45,45,0,1,0,251.04388,452.84033 z" fill="red" stroke="none" stroke-width="0"/>
<circle cx="311.8079136983432" cy="287.0591389256981" fill="none" r="15" stroke="black" stroke-width="6"/>
<circle cx="198.9039387793621" cy="387.5598320753533" fill="black" r="10" stroke="none" stroke-width="0"/>
<circle cx="227.43563426821672" cy="366.83034190660175" fill="black" r="10" stroke="none" stroke-width="0"/>
<circle cx="216.5374963481363" cy="333.2893222441049" fill="black" r="10" stroke="none" stroke-width="0"/>
<path d="M233.9902,216.02855 A83,83,0,0,0,233.9902,216.02855 A27,27,0,0,1,287.1804,212.92062 A83,83,0,0,0,311.18765,74.00546 A27,27,0,1,1,282.57333,57.36885 A83,83,0,1,0,233.9902,216.02855 z" fill="green" stroke="none" stroke-width="0"/>
<path d="M229.56898,208.32152 A77,77,0,0,0,229.56898,208.32152 A33,33,0,0,1,290.67395,204.75113 A77,77,0,0,0,318.44543,90.94929 A33,33,0,1,1,264.25772,59.444073 A77,77,0,0,0,229.56898,208.32152 z" fill="yellow" stroke="none" stroke-width="0"/>
<path d="M218.61174,203.31358 A77,77,0,0,0,224.00845,206.03957 A39,39,0,0,1,295.93088,201.83711 A77,77,0,0,0,300.9734,198.50116 A45,45,0,0,0,218.61174,203.31358 z" fill="red" stroke="none" stroke-width="0"/>
<circle cx="310.1644264156714" cy="145.55064977168118" fill="none" r="15" stroke="black" stroke-width="6"/>
<circle cx="295.27921038993674" cy="143.69853102084144" fill="none" r="30" stroke="black" stroke-width="6"/>
<circle cx="181.94278937135743" cy="105.74228108556643" fill="none" r="30" stroke="black" stroke-width="6"/>
<circle cx="181.94278937135743" cy="105.74228108556643" fill="none" r="42" stroke="black" stroke-width="6"/>
<circle cx="294.97114317029974" cy="143.5" fill="black" r="10" stroke="none" stroke-width="0"/>
<circle cx="314.25477146089594" cy="136.48133329356935" fill="black" r="10" stroke="none" stroke-width="0"/>
<circle cx="324.51537576066596" cy="118.70944533000791" fill="black" r="10" stroke="none" stroke-width="0"/>
<circle cx="181.94278937135743" cy="135.74228108556645" fill="black" r="10" stroke="none" stroke-width="0"/>
<circle cx="201.2264176619536" cy="128.72361437913577" fill="black" r="10" stroke="none" stroke-width="0"/>
<path d="M260.66647,245.86378 L286.15775,114.12987" fill="none" stroke="black" stroke-width="1"/>
<path d="M279.9501,238.84512 L315.70197,89.33932" fill="none" stroke="black" stroke-width="1"/>
<path d="M286.15775,114.12987 L260.66647,245.86378" fill="none" stroke="black" stroke-width="1"/>
<path d="M305.44138,107.111206 L250,250" fill="none" stroke="black" stroke-width="1"/>
<path d="M315.70197,89.33932 L279.9501,238.84512" fill="none" stroke="black" stroke-width="1"/>
<circle cx="256" cy="256" fill="none" r="250" stroke="black" stroke-width="6"/>
</svg>