<svg viewBox="0 0 512 512" xmlns="http://www.w3.org/2000/svg">
<path d="M256,459 A83,83,0,0,0,285.07324,453.74155 A27,27,0,1,1,313.14114,436.19876 A83,83,0,1,0,183.6894,335.25473 A27,27,0,1,1,173.51683,366.75192 A83,83,0,0,0,256,459 z" fill="green" stroke="none" stroke-width="0"/>
<path d="M256,453 A77,77,0,0,0,266.70065,452.25284 A33,33,0,1,1,319.8536,419.0316 A77,77,0,0,0,198.70277,324.56046 A33,33,0,1,1,179.43869,384.2076 A77,77,0,0,0,256,453 z" fill="yellow" stroke="none" stroke-width="0"/>
<path d="M251.04388,452.84033 A77,77,0,0,0,258.79398,452.94928 A39,39,0,1,1,323.9442,412.22958 A77,77,0,0,0,327.24228,405.2154 A45,45,0,1,0,251.04388,452.84033 z" fill="red" stroke="none" stroke-width="0"/>
<circle cx="309.1503939984221" cy="291.29441802447434" fill="black" r="18" stroke="none" stroke-width="0"/>
<circle cx="309.1503939984221" cy="291.29441802447434" fill="blue" r="12" stroke="none" stroke-width="0"/>
<circle cx="198.9039387793621" cy="387.5598320753533" fill="black" r="10" stroke="none" stroke-width="0"/>
<circle cx="227.43563426821672" cy="366.83034190660175" fill="black" r="10" stroke="none" stroke-width="0"/>
<circle cx="216.5374963481363" cy="333.2893222441049" fill="black" r="10" stroke="none" stroke-width="0"/>
<path d="M229.35954,214.60843 A83,83,0,0,0,229.35954,214.60843 A27,27,0,0,1,282.64047,214.60843 A83,83,0,0,0,284.64365,58.099155 A27,27,0,1,1,251.92415,53.100136 A83,83,0,0,0,229.35954,214.60843 z" fill="green" stroke="none" stroke-width="0"/>
<path d="M225.3954,206.65663 A77,77,0,0,0,225.3954,206.65663 A33,33,0,0,1,286.60458,206.65663 A77,77,0,0,0,297.60345,71.206856 A33,33,0,1,1,235.64163,61.740074 A77,77,0,0,0,225.3954,206.65663 z" fill="yellow" stroke="none" stroke-width="0"/>
<path d="M214.74893,201.01807 A77,77,0,0,0,219.97746,204.05421 A39,39,0,0,1,292.02255,204.05421 A77,77,0,0,0,297.25107,201.01807 A45,45,0,0,0,214.74893,201.01807 z" fill="red" stroke="none" stroke-width="0"/>
<circle cx="311.86534923210354" cy="157.88750225985382" fill="black" r="18" stroke="none" stroke-width="0"/>
<circle cx="311.86534923210354" cy="157.88750225985382" fill="blue" r="12" stroke="none" stroke-width="0"/>
<circle cx="298.6168767119891" cy="121.5500235531292" fill="black" r="33" stroke="none" stroke-width="0"/>
<circle cx="298.6168767119891" cy="121.5500235531292" fill="blue" r="27" stroke="none" stroke-width="0"/>
<circle cx="177.10686189625292" cy="122.73829723817151" fill="black" r="45" stroke="none" stroke-width="0"/>
<circle cx="177.10686189625292" cy="122.73829723817151" fill="blue" r="27" stroke="none" stroke-width="0"/>
<circle cx="177.10686189625292" cy="122.73829723817151" fill="none" r="36" stroke="blue" stroke-width="6"/>
<circle cx="298.6168767119891" cy="151.5500235531292" fill="black" r="10" stroke="none" stroke-width="0"/>
<circle cx="317.9005050025853" cy="144.53135684669854" fill="black" r="10" stroke="none" stroke-width="0"/>
<circle cx="328.1611093023553" cy="126.7594688831371" fill="black" r="10" stroke="none" stroke-width="0"/>
<circle cx="177.10686189625292" cy="152.73829723817153" fill="black" r="10" stroke="none" stroke-width="0"/>
<circle cx="196.3904901868491" cy="145.71963053174085" fill="black" r="10" stroke="none" stroke-width="0"/>
<path d="M256,246 L265.0619,106.68826" fill="none" stroke="black" stroke-width="1"/>
<path d="M275.28363,238.98134 L294.6061,81.897705" fill="none" stroke="black" stroke-width="1"/>
<path d="M265.0619,106.68826 L256,246" fill="none" stroke="black" stroke-width="1"/>
<path d="M284.34552,99.66959 L250,250" fill="none" stroke="black" stroke-width="1"/>
<path d="M294.6061,81.897705 L275.28363,238.98134" fill="none" stroke="black" stroke-width="1"/>
<circle cx="256" cy="256" fill="none" r="250" stroke="black" stroke-width="6"/>
</svg>