<svg viewBox="0 0 2048 2048" xmlns="http://www.w3.org/2000/svg">
<rect fill="yellow" height="2048" stroke="none" width="2048" x="0" y="0"/>
<path d="M1024,1749 A725,725,0,0,0,1689.3928,1311.8844 A182.5,182.5,0,1,1,1731.5283,1182.2047 A725,725,0,0,0,1583.9873,563.52277 A182.5,182.5,0,1,1,1288.8943,349.12518 A725,725,0,1,0,1024,1749 z" fill="black" stroke="none" stroke-width="0"/>
<path d="M1024,1599 A575,575,0,0,0,1424.2921,1436.7847 A272.5,272.5,0,0,1,1590.4719,925.33594 A575,575,0,0,0,1513.2961,721.98303 A272.5,272.5,0,0,1,1160.0344,465.3233 A575,575,0,1,0,1024,1599 z" fill="green" stroke="none" stroke-width="0"/>
<circle cx="1024" cy="1251.5" fill="none" r="227.49999999999997" stroke="black" stroke-width="90px"/>
<circle cx="1024" cy="1251.5" fill="none" r="97.5" stroke="black" stroke-width="67.5px"/>
<circle cx="641.9395860098925" cy="498.1389536562841" fill="none" r="227.49999999999997" stroke="black" stroke-width="90px"/>
<circle cx="1024" cy="1024" fill="none" r="1020" stroke="black" stroke-width="20"/>
</svg>