<svg viewBox="0 0 2048 2048" xmlns="http://www.w3.org/2000/svg">
<rect fill="yellow" height="2048" stroke="none" width="2048" x="0" y="0"/>
<circle cx="1024" cy="1024" fill="orange" r="1000" stroke="none"/>
<path d="M740.9492,1669.6836 A705,705,0,0,0,740.9492,1669.6836 A285.5,285.5,0,0,1,1307.0508,1669.6836 A705,705,0,0,0,1635.6877,673.4817 A285.5,285.5,0,1,1,1213.4637,344.93558 A705,705,0,0,0,740.9492,1669.6836 z" fill="black" stroke="none" stroke-width="0"/>
<path d="M717.89606,1534.221 A595,595,0,0,0,717.89606,1534.221 A351.5,351.5,0,0,1,1330.104,1534.221 A595,595,0,0,0,1593.9559,853.19244 A351.5,351.5,0,0,1,1049.5177,429.54742 A595,595,0,0,0,717.89606,1534.221 z" fill="green" stroke="none" stroke-width="0"/>
<circle cx="1203.8386277763188" cy="1444.1306066512675" fill="blue" r="25" stroke="none"/>
<circle cx="1024" cy="1388.5" fill="blue" r="25" stroke="none"/>
<circle cx="844.1613722236813" cy="1444.1306066512675" fill="blue" r="25" stroke="none"/>
<circle cx="1363.298506172935" cy="587.9578303548901" fill="none" r="97.5" stroke="red" stroke-width="49.5px"/>
<circle cx="1477.1914870706578" cy="1129.2819368674532" fill="purple" r="20" stroke="none"/>
<circle cx="806.1167159401247" cy="958.5544155249289" fill="none" r="318.5" stroke="black" stroke-width="66px"/>
<circle cx="1393.794122959092" cy="1053.7518120270697" fill="purple" r="20" stroke="none"/>
<circle cx="1024" cy="1024" fill="none" r="1020" stroke="black" stroke-width="40"/>
<line stroke="black" stroke-width="8" x1="1393.794122959092" x2="1477.1914870706578" y1="1053.7518120270697" y2="1129.2819368674532"/>
</svg>