<svg viewBox="0 0 2048 2048" xmlns="http://www.w3.org/2000/svg">
<rect fill="yellow" height="2048" stroke="none" width="2048" x="0" y="0"/>
<path d="M829.5733,1701.6602 A705,705,0,0,0,829.5733,1701.6602 A194.5,194.5,0,0,1,1218.4266,1701.6602 A705,705,0,0,0,1701.6056,1218.6167 A194.5,194.5,0,0,1,1701.7146,829.76337 A705,705,0,0,0,1218.6954,346.41702 A194.5,194.5,0,0,1,829.8421,346.2628 A705,705,0,0,0,346.3944,829.38324 A194.5,194.5,0,0,1,346.28537,1218.2366 A705,705,0,0,0,829.5733,1701.6602 z" fill="black" stroke="none" stroke-width="0"/>
<path d="M799.4251,1574.9911 A595,595,0,0,0,799.4251,1574.9911 A260.5,260.5,0,0,1,1248.575,1574.9911 A595,595,0,0,0,1574.928,1248.7294 A260.5,260.5,0,0,1,1575.054,799.57965 A595,595,0,0,0,1248.7935,473.09808 A260.5,260.5,0,0,1,799.6437,472.91995 A595,595,0,0,0,473.07196,799.27057 A260.5,260.5,0,0,1,472.946,1248.4204 A595,595,0,0,0,799.4251,1574.9911 z" fill="green" stroke="none" stroke-width="0"/>
<circle cx="1024" cy="1414" fill="none" r="97.5" stroke="red" stroke-width="49.5px"/>
<circle cx="1184.8893496149035" cy="1546.1557673384173" fill="purple" r="20" stroke="none"/>
<circle cx="863.1557673384174" cy="1546.1106503850965" fill="purple" r="20" stroke="none"/>
<circle cx="1024.0451169531727" cy="1479.5000044737133" fill="purple" r="20" stroke="none"/>
<circle cx="1673.999974435925" cy="1024.1823000190054" fill="none" r="97.5" stroke="red" stroke-width="49.5px"/>
<circle cx="1546.110623523153" cy="1185.0357879123223" fill="purple" r="20" stroke="none"/>
<circle cx="1546.1876506163576" cy="863.2703107701643" fill="purple" r="20" stroke="none"/>
<circle cx="1498.4129635600457" cy="1115.0084558546628" fill="purple" r="20" stroke="none"/>
<circle cx="1024.2578111559185" cy="374.00005112814983" fill="none" r="97.5" stroke="red" stroke-width="49.5px"/>
<circle cx="1024.225783076815" cy="568.5000492501734" fill="purple" r="20" stroke="none"/>
<circle cx="808.894731175084" cy="414.2759425918069" fill="purple" r="20" stroke="none"/>
<circle cx="1185.083222551687" cy="501.9212982044619" fill="purple" r="20" stroke="none"/>
<circle cx="244.0000306768901" cy="1023.7812399771933" fill="none" r="97.5" stroke="red" stroke-width="49.5px"/>
<circle cx="501.8442595235262" cy="1184.6977943641637" fill="purple" r="20" stroke="none"/>
<circle cx="1024" cy="1024" fill="none" r="1020" stroke="black" stroke-width="20"/>
<line stroke="black" stroke-width="8" x1="501.8442595235262" x2="863.1557673384174" y1="1184.6977943641637" y2="1546.1106503850965"/>
<line stroke="black" stroke-width="8" x1="1546.110623523153" x2="1184.8893496149035" y1="1185.0357879123223" y2="1546.1557673384173"/>
<line stroke="black" stroke-width="8" x1="1024.225783076815" x2="1024.0451169531727" y1="568.5000492501734" y2="1479.5000044737133"/>
<line stroke="black" stroke-width="8" x1="1546.1876506163576" x2="1185.083222551687" y1="863.2703107701643" y2="501.9212982044619"/>
<line stroke="black" stroke-width="8" x1="1498.4129635600457" x2="231.78217284081074" y1="1115.0084558546628" y2="1666.48806551653"/>
<line stroke="black" stroke-width="8" x1="808.894731175084" x2="68.87123459065117" y1="414.2759425918069" y2="666.0488280678313"/>
</svg>