<svg viewBox="0 0 512 512" xmlns="http://www.w3.org/2000/svg">
<path d="M226.08449,453.75 A200,200,0,0,0,226.08449,453.75 A30,30,0,0,1,285.9155,453.75 A200,200,0,0,0,431.69684,351.55426 A30,30,0,0,1,452.0989,295.3092 A200,200,0,0,0,408.17404,126.21918 A30,30,0,0,1,362.97693,87.01497 A200,200,0,1,0,226.08449,453.75 z" fill="green" stroke="black" stroke-width="3"/>
<circle cx="387.04978854688704" cy="104.91739702462036" fill="none" r="15" stroke="black" stroke-width="3"/>
<circle cx="146.8373760638021" cy="88.41861220480291" fill="blue" r="30" stroke="black" stroke-width="3"/>
<circle cx="62.145202138873316" cy="305.196720888914" fill="blue" r="30" stroke="black" stroke-width="3"/>
<circle cx="256" cy="256" fill="none" r="250" stroke="black" stroke-width="6"/>
</svg>