<svg viewBox="0 0 512 512" xmlns="http://www.w3.org/2000/svg">
<path d="M59.155346,291.38617 A200,200,0,0,0,59.155346,291.38617 A30,30,0,0,1,78.43039,348.02734 A200,200,0,0,0,228.17825,454.05542 A30,30,0,0,1,288.00592,453.42245 A200,200,0,0,0,434.82703,345.55945 A30,30,0,0,1,453.31583,288.65677 A200,200,0,1,0,59.155346,291.38617 z" fill="green" stroke="black" stroke-width="3"/>
<circle cx="446.21130325903073" cy="317.80339887498945" fill="none" r="15" stroke="black" stroke-width="3"/>
<circle cx="375.2622667064718" cy="95.44934836621064" fill="blue" r="30" stroke="black" stroke-width="3"/>
<circle cx="140.69496156577884" cy="92.58412527638944" fill="blue" r="30" stroke="black" stroke-width="3"/>
<circle cx="256" cy="256" fill="none" r="250" stroke="black" stroke-width="6"/>
</svg>