<svg viewBox="0 0 512 512" xmlns="http://www.w3.org/2000/svg">
<path d="M229.00066,456.1875 A202,202,0,0,0,229.00066,456.1875 A27,27,0,0,1,282.99936,456.1875 A202,202,0,0,0,434.98267,349.64407 A27,27,0,0,1,453.39594,298.88177 A202,202,0,0,0,407.5683,122.46705 A27,27,0,0,1,366.77698,87.084465 A202,202,0,1,0,229.00066,456.1875 z" fill="green" stroke="none" stroke-width="0"/>
<path d="M223.33821,451.2875 A198,198,0,0,0,223.33821,451.2875 A33,33,0,0,1,288.66177,451.2875 A198,198,0,0,0,428.44547,353.29623 A33,33,0,0,1,450.7205,291.88782 A198,198,0,0,0,408.63507,129.87888 A33,33,0,0,1,359.2888,87.075676 A198,198,0,1,0,223.33821,451.2875 z" fill="yellow" stroke="none" stroke-width="0"/>
<circle cx="146.8373760638022" cy="88.41861220480286" fill="blue" r="30" stroke="black" stroke-width="3"/>
<circle cx="62.145202138873316" cy="305.196720888914" fill="blue" r="30" stroke="black" stroke-width="3"/>
<circle cx="387.04978854688704" cy="104.91739702462036" fill="none" r="15" stroke="black" stroke-width="3"/>
<circle cx="387.04978854688704" cy="134.91739702462036" fill="black" r="10" stroke="none" stroke-width="0"/>
<circle cx="404.68334611566127" cy="129.1879068558688" fill="black" r="10" stroke="none" stroke-width="0"/>
<circle cx="415.58148403574165" cy="114.18790685586877" fill="black" r="10" stroke="none" stroke-width="0"/>
<path d="M256,486 L256,256" fill="none" stroke="black" stroke-width="1"/>
<path d="M273.63354,480.2705 L256,256" fill="none" stroke="black" stroke-width="1"/>
<path d="M284.5317,465.2705 L256,256" fill="none" stroke="black" stroke-width="1"/>
<circle cx="256" cy="256" fill="none" r="250" stroke="black" stroke-width="6"/>
</svg>