<svg viewBox="0 0 512 512" xmlns="http://www.w3.org/2000/svg">
<path d="M229.02667,457.2 A203,203,0,0,0,229.02667,457.2 A27,27,0,0,1,282.97333,457.2 A203,203,0,0,0,435.94333,349.96484 A27,27,0,0,1,454.33887,299.2515 A203,203,0,0,0,408.2121,121.68514 A27,27,0,0,1,367.46008,86.33666 A203,203,0,1,0,229.02667,457.2 z" fill="green" stroke="none" stroke-width="0"/>
<path d="M223.496,450.3 A197,197,0,0,0,223.496,450.3 A33,33,0,0,1,288.504,450.3 A197,197,0,0,0,427.57095,352.8112 A33,33,0,0,1,449.73834,291.69943 A197,197,0,0,0,407.8688,130.52147 A33,33,0,0,1,358.76093,87.92504 A197,197,0,1,0,223.496,450.3 z" fill="yellow" stroke="none" stroke-width="0"/>
<circle cx="146.8373760638021" cy="88.41861220480291" fill="blue" r="30" stroke="black" stroke-width="3"/>
<circle cx="62.145202138873316" cy="305.196720888914" fill="blue" r="30" stroke="black" stroke-width="3"/>
<circle cx="387.04978854688704" cy="104.91739702462036" fill="none" r="15" stroke="black" stroke-width="3"/>
<circle cx="387.04978854688704" cy="134.91739702462036" fill="black" r="10" stroke="none" stroke-width="0"/>
<circle cx="404.68334611566127" cy="129.1879068558688" fill="black" r="10" stroke="none" stroke-width="0"/>
<circle cx="415.58148403574165" cy="114.18790685586877" fill="black" r="10" stroke="none" stroke-width="0"/>
<path d="M256,486 L256,256" fill="none" stroke="black" stroke-width="1"/>
<path d="M273.63354,480.2705 L256,256" fill="none" stroke="black" stroke-width="1"/>
<path d="M284.5317,465.2705 L256,256" fill="none" stroke="black" stroke-width="1"/>
<circle cx="256" cy="256" fill="none" r="250" stroke="black" stroke-width="6"/>
</svg>