<svg viewBox="0 0 512 512" xmlns="http://www.w3.org/2000/svg">
<path d="M227.00015,455.9075 A202,202,0,0,0,227.00015,455.9075 A29,29,0,0,1,284.99985,455.9075 A202,202,0,0,0,434.03726,351.4292 A29,29,0,0,1,453.81488,296.9057 A202,202,0,0,0,408.89606,123.989395 A29,29,0,0,1,365.0823,85.98515 A202,202,0,1,0,227.00015,455.9075 z" fill="green" stroke="none" stroke-width="0"/>
<path d="M225.31277,451.6075 A198,198,0,0,0,225.31277,451.6075 A31,31,0,0,1,286.68723,451.6075 A198,198,0,0,0,429.41962,351.54916 A31,31,0,0,1,450.348,293.85318 A198,198,0,0,0,407.35315,128.34332 A31,31,0,0,1,360.99008,88.12778 A198,198,0,1,0,225.31277,451.6075 z" fill="yellow" stroke="none" stroke-width="0"/>
<circle cx="146.8373760638021" cy="88.41861220480291" fill="blue" r="30" stroke="black" stroke-width="3"/>
<circle cx="62.145202138873316" cy="305.196720888914" fill="blue" r="30" stroke="black" stroke-width="3"/>
<circle cx="387.04978854688704" cy="104.91739702462036" fill="none" r="15" stroke="black" stroke-width="3"/>
<circle cx="256" cy="256" fill="none" r="250" stroke="black" stroke-width="6"/>
</svg>