<svg viewBox="0 0 512 512" xmlns="http://www.w3.org/2000/svg">
<path d="M227.38182,447 A50,50,0,0,0,227.38182,447 A30,30,0,0,1,284.61816,447 A50,50,0,0,0,291.27704,441.43347 A30,30,0,1,1,305.367,398.06903 A50,50,0,0,0,303.2518,389.65164 A30,30,0,0,1,256.9466,356.00897 A50,50,0,0,0,227.38182,447 z" fill="green" stroke="black" stroke-width="3"/>
<circle cx="226.61073738537635" cy="365.54915028125265" fill="blue" r="15" stroke="black" stroke-width="3"/>
<circle cx="208.44717418524232" cy="421.45084971874735" fill="blue" r="15" stroke="black" stroke-width="3"/>
<path d="M385.9038,231 A50,50,0,1,0,358.76468,139.00633 A30,30,0,1,1,335.96667,178.49367 A50,50,0,0,0,385.9038,231 z" fill="green" stroke="black" stroke-width="3"/>
<circle cx="385.9038105676658" cy="251.00000000000003" fill="blue" r="15" stroke="black" stroke-width="3"/>
<circle cx="398.8941916244324" cy="173.50000000000003" fill="blue" r="30" stroke="black" stroke-width="3"/>
<path d="M97.47801,222 A50,50,0,0,0,97.47801,222 A30,30,0,0,1,154.71437,222 A50,50,0,0,0,175.91232,185.28407 A30,30,0,0,1,147.29414,135.71593 A50,50,0,0,0,97.47801,222 z" fill="green" stroke="black" stroke-width="3"/>
<circle cx="100.11542731880107" cy="165.99999999999994" fill="blue" r="15" stroke="black" stroke-width="3"/>
</svg>