<svg viewBox="0 0 2048 2048" xmlns="http://www.w3.org/2000/svg">
<rect fill="yellow" height="2048" stroke="none" width="2048" x="0" y="0"/>
<path d="M829.5733,1701.6602 A705,705,0,0,0,829.5733,1701.6602 A194.5,194.5,0,0,1,1218.4266,1701.6602 A705,705,0,0,0,1701.5856,1218.6865 A194.5,194.5,0,0,1,1701.7346,829.8332 A705,705,0,0,0,1218.9464,346.4892 A194.5,194.5,0,0,1,830.09314,346.19095 A705,705,0,0,0,346.41446,829.3135 A194.5,194.5,0,0,1,346.26535,1218.1667 A705,705,0,0,0,829.5733,1701.6602 z" fill="black" stroke="none" stroke-width="0"/>
<path d="M799.4251,1574.9911 A595,595,0,0,0,799.4251,1574.9911 A260.5,260.5,0,0,1,1248.575,1574.9911 A595,595,0,0,0,1574.9049,1248.7861 A260.5,260.5,0,0,1,1575.0771,799.6364 A595,595,0,0,0,1248.9974,473.18137 A260.5,260.5,0,0,1,799.8478,472.83688 A595,595,0,0,0,473.09512,799.2138 A260.5,260.5,0,0,1,472.92288,1248.3635 A595,595,0,0,0,799.4251,1574.9911 z" fill="green" stroke="none" stroke-width="0"/>
<circle cx="1024" cy="1414" fill="none" r="97.5" stroke="red" stroke-width="49.5px"/>
<circle cx="1673.9999522027165" cy="1024.2492718719216" fill="none" r="97.5" stroke="red" stroke-width="49.5px"/>
<circle cx="1519.2853735114222" cy="895.7337674278803" fill="purple" r="20" stroke="none"/>
<circle cx="1024.4985437071832" cy="374.00019118912655" fill="none" r="97.5" stroke="red" stroke-width="49.5px"/>
<circle cx="244.00005735674006" cy="1023.700873753694" fill="none" r="97.5" stroke="red" stroke-width="49.5px"/>
<circle cx="528.7146264885778" cy="1152.2662325721196" fill="purple" r="20" stroke="none"/>
<circle cx="1024" cy="1024" fill="none" r="1020" stroke="black" stroke-width="20"/>
</svg>