<svg viewBox="0 0 2048 2048" xmlns="http://www.w3.org/2000/svg">
<rect fill="yellow" height="2048" stroke="none" width="2048" x="0" y="0"/>
<path d="M837.85504,1703.9817 A705,705,0,0,0,837.85504,1703.9817 A194.5,194.5,0,0,1,1226.6794,1699.2378 A705,705,0,0,0,1373.1953,1636.444 A194.5,194.5,0,0,1,1644.7813,1358.1492 A705,705,0,0,0,1701.6602,1218.4266 A194.5,194.5,0,0,1,1701.6602,829.5733 A705,705,0,0,0,1640.6584,682.30237 A194.5,194.5,0,0,1,1365.6976,407.3415 A705,705,0,1,0,837.85504,1703.9817 z" fill="black" stroke="none" stroke-width="0"/>
<path d="M806.16376,1577.6898 A595,595,0,0,0,806.16376,1577.6898 A260.5,260.5,0,0,1,1255.2802,1572.2103 A595,595,0,0,0,1261.4843,1569.5513 A260.5,260.5,0,0,1,1575.183,1248.1035 A595,595,0,0,0,1574.9911,1248.575 A260.5,260.5,0,0,1,1574.9911,799.4251 A595,595,0,0,0,1572.408,793.1889 A260.5,260.5,0,0,1,1254.811,475.59207 A595,595,0,1,0,806.16376,1577.6898 z" fill="green" stroke="none" stroke-width="0"/>
<circle cx="1028.7578819707585" cy="1413.97097655999" fill="none" r="97.5" stroke="red" stroke-width="49.5px"/>
<circle cx="1489.1924209951956" cy="1477.9779856431683" fill="none" r="97.5" stroke="red" stroke-width="49.5px"/>
<circle cx="1465.0170619908663" cy="1283.3526145338399" fill="purple" r="20" stroke="none"/>
<circle cx="1674" cy="1024" fill="none" r="97.5" stroke="red" stroke-width="49.5px"/>
<circle cx="1575.543289325507" cy="472.4567106744929" fill="none" r="97.5" stroke="red" stroke-width="49.5px"/>
<circle cx="1283.3526145338399" cy="582.9829380091338" fill="purple" r="20" stroke="none"/>
<circle cx="1024" cy="1024" fill="none" r="1020" stroke="black" stroke-width="20"/>
</svg>