<svg viewBox="0 0 2048 2048" xmlns="http://www.w3.org/2000/svg">
<rect fill="yellow" height="2048" stroke="none" width="2048" x="0" y="0"/>
<path d="M829.5733,1701.6602 A705,705,0,0,0,829.5733,1701.6602 A194.5,194.5,0,0,1,1218.4266,1701.6602 A705,705,0,0,0,1159.7672,332.19635 A194.5,194.5,0,1,1,888.30646,332.18192 A705,705,0,0,0,829.5733,1701.6602 z" fill="black" stroke="none" stroke-width="0"/>
<path d="M799.4251,1574.9911 A595,595,0,0,0,799.4251,1574.9911 A260.5,260.5,0,0,1,1248.575,1574.9911 A595,595,0,0,0,1283.9548,488.7912 A260.5,260.5,0,0,1,764.10205,488.76355 A595,595,0,0,0,799.4251,1574.9911 z" fill="green" stroke="none" stroke-width="0"/>
<circle cx="1024" cy="1707" fill="none" r="97.5" stroke="red" stroke-width="49.5px"/>
<circle cx="1075.8552530047941" cy="1485.4886397138766" fill="purple" r="20" stroke="none"/>
<circle cx="1014.8118715106044" cy="1479.6856179322076" fill="purple" r="20" stroke="none"/>
<circle cx="1024" cy="1024" fill="none" r="1020" stroke="black" stroke-width="20"/>
<line stroke="black" stroke-width="8" x1="1075.8552530047941" x2="1405.3516070328933" y1="1485.4886397138766" y2="77.97095614699538"/>
<line stroke="black" stroke-width="8" x1="1014.8118715106044" x2="955.2578686785263" y1="1479.6856179322076" y2="6.31904833519593"/>
</svg>