<svg viewBox="0 0 2048 2048" xmlns="http://www.w3.org/2000/svg">
<rect fill="yellow" height="2048" stroke="none" width="2048" x="0" y="0"/>
<circle cx="1024" cy="1024" fill="orange" r="1000" stroke="none"/>
<path d="M829.5733,1701.6602 A705,705,0,0,0,829.5733,1701.6602 A194.5,194.5,0,0,1,1218.4266,1701.6602 A705,705,0,0,0,1291.5477,371.7399 A285.5,285.5,0,1,1,756.5564,371.6972 A705,705,0,0,0,829.5733,1701.6602 z" fill="black" stroke="none" stroke-width="0"/>
<path d="M799.4251,1574.9911 A595,595,0,0,0,799.4251,1574.9911 A260.5,260.5,0,0,1,1248.575,1574.9911 A595,595,0,0,0,1368.9619,539.2049 A351.5,351.5,0,0,1,679.1155,539.14984 A595,595,0,0,0,799.4251,1574.9911 z" fill="green" stroke="none" stroke-width="0"/>
<circle cx="1024" cy="1707" fill="none" r="97.5" stroke="red" stroke-width="49.5px"/>
<circle cx="846.6195311041058" cy="1849.4514628014495" fill="purple" r="20" stroke="none"/>
<circle cx="1053.0853258368008" cy="1481.3669044201026" fill="purple" r="20" stroke="none"/>
<path d="M1259.1831,359.38437 A260.5,260.5,0,1,1,788.92303,359.34686 A705,705,0,0,1,888.3248,332.1783 A194.5,194.5,0,1,0,1159.7855,332.19998 A705,705,0,0,1,1259.1831,359.38437 z" fill="black" stroke="none" stroke-width="0"/>
<circle cx="1024" cy="1024" fill="none" r="1020" stroke="black" stroke-width="40"/>
<line stroke="black" stroke-width="8" x1="1053.0853258368008" x2="1240.529151189262" y1="1481.3669044201026" y2="27.24771046901651"/>
<line stroke="black" stroke-width="8" x1="846.6195311041058" x2="679.1559385415637" y1="1849.4514628014495" y2="1983.9388383000503"/>
</svg>