<svg viewBox="0 0 2048 2048" xmlns="http://www.w3.org/2000/svg">
<rect fill="yellow" height="2048" stroke="none" width="2048" x="0" y="0"/>
<circle cx="1024" cy="1024" fill="orange" r="1000" stroke="none"/>
<path d="M829.5733,1701.6602 A705,705,0,0,0,829.5733,1701.6602 A194.5,194.5,0,0,1,1218.4266,1701.6602 A705,705,0,0,0,1159.7855,332.19998 A194.5,194.5,0,1,1,888.3248,332.1783 A705,705,0,0,0,829.5733,1701.6602 z" fill="black" stroke="none" stroke-width="0"/>
<path d="M799.4251,1574.9911 A595,595,0,0,0,799.4251,1574.9911 A260.5,260.5,0,0,1,1248.575,1574.9911 A595,595,0,0,0,1368.9619,539.2049 A351.5,351.5,0,0,1,679.1155,539.14984 A595,595,0,0,0,799.4251,1574.9911 z" fill="green" stroke="none" stroke-width="0"/>
<circle cx="1024" cy="1707" fill="none" r="97.5" stroke="red" stroke-width="49.5px"/>
<circle cx="1234.8562877859208" cy="1621.58410041953" fill="purple" r="20" stroke="none"/>
<circle cx="817.1594152606308" cy="1612.272905118568" fill="purple" r="20" stroke="none"/>
<path d="M1291.5477,371.7399 A285.5,285.5,0,1,1,756.5564,371.6972 A705,705,0,0,1,788.92303,359.34686 A260.5,260.5,0,1,0,1259.1831,359.38437 A705,705,0,0,1,1291.5477,371.7399 z" fill="orange" stroke="none" stroke-width="0"/>
<circle cx="1024" cy="1024" fill="none" r="1020" stroke="black" stroke-width="40"/>
<line stroke="black" stroke-width="8" x1="817.1594152606308" x2="29.72919645415834" y1="1612.272905118568" y2="1251.6522989479931"/>
<line stroke="black" stroke-width="8" x1="1234.8562877859208" x2="2002.9563706704612" y1="1621.58410041953" y2="1310.4339789964147"/>
</svg>