<svg viewBox="0 0 2048 2048" xmlns="http://www.w3.org/2000/svg">
<rect fill="yellow" height="2048" stroke="none" width="2048" x="0" y="0"/>
<path d="M829.5733,1701.6602 A705,705,0,0,0,829.5733,1701.6602 A194.5,194.5,0,0,1,1218.4266,1701.6602 A705,705,0,0,0,1159.7855,332.19998 A194.5,194.5,0,1,1,888.3248,332.1783 A705,705,0,0,0,829.5733,1701.6602 z" fill="black" stroke="none" stroke-width="0"/>
<path d="M799.4251,1574.9911 A595,595,0,0,0,799.4251,1574.9911 A260.5,260.5,0,0,1,1248.575,1574.9911 A595,595,0,0,0,1408.199,569.66956 A396.5,396.5,0,0,1,639.87354,569.6083 A595,595,0,0,0,799.4251,1574.9911 z" fill="green" stroke="none" stroke-width="0"/>
<circle cx="1024" cy="1707" fill="none" r="97.5" stroke="red" stroke-width="49.5px"/>
<circle cx="1046.2373654891258" cy="1933.4105774386503" fill="purple" r="20" stroke="none"/>
<circle cx="1234.6584365643173" cy="1621.0973044411442" fill="purple" r="20" stroke="none"/>
<path d="M1322.1814,509.10886 A300.5,300.5,0,0,1,725.9008,509.06128 A595,595,0,0,1,764.1163,488.75662 A260.5,260.5,0,0,0,1283.9691,488.79813 A595,595,0,0,1,1322.1814,509.10886 z" fill="green" stroke="none" stroke-width="0"/>
<circle cx="827.2432365678742" cy="759.1137588338925" fill="blue" r="25" stroke="none"/>
<circle cx="1024.0162801631016" cy="820.0000006496169" fill="blue" r="25" stroke="none"/>
<circle cx="1220.7990392709762" cy="759.1451664450587" fill="blue" r="25" stroke="none"/>
<circle cx="1024" cy="1024" fill="none" r="1020" stroke="black" stroke-width="20"/>
<line stroke="black" stroke-width="8" x1="1234.6584365643173" x2="2003.826064287031" y1="1621.0973044411442" y2="1307.4446749257902"/>
<line stroke="black" stroke-width="8" x1="1046.2373654891258" x2="1057.0465334182365" y1="1933.4105774386503" y2="2043.46452936286"/>
</svg>