<svg viewBox="0 0 2048 2048" xmlns="http://www.w3.org/2000/svg">
<rect fill="yellow" height="2048" stroke="none" width="2048" x="0" y="0"/>
<circle cx="1024" cy="1024" fill="orange" r="1000" stroke="none"/>
<path d="M829.5733,1701.6602 A705,705,0,0,0,829.5733,1701.6602 A194.5,194.5,0,0,1,1218.4266,1701.6602 A705,705,0,0,0,1218.4807,346.35538 A194.5,194.5,0,0,1,829.6274,346.32434 A705,705,0,0,0,829.5733,1701.6602 z" fill="black" stroke="none" stroke-width="0"/>
<path d="M799.4251,1574.9911 A595,595,0,0,0,799.4251,1574.9911 A260.5,260.5,0,0,1,1248.575,1574.9911 A595,595,0,0,0,1330.1447,513.8035 A351.5,351.5,0,0,1,717.93677,513.7547 A595,595,0,0,0,799.4251,1574.9911 z" fill="green" stroke="none" stroke-width="0"/>
<circle cx="1024" cy="1707" fill="none" r="97.5" stroke="red" stroke-width="49.5px"/>
<circle cx="1079.1557088662516" cy="1486.287295835828" fill="purple" r="20" stroke="none"/>
<circle cx="1215.7392432341774" cy="1584.5569005456618" fill="purple" r="20" stroke="none"/>
<path d="M1271.724,483.02142 A285.5,285.5,0,0,1,776.36237,482.98187 A595,595,0,0,1,799.46906,472.99106 A260.5,260.5,0,0,0,1248.6189,473.0269 A595,595,0,0,1,1271.724,483.02142 z" fill="green" stroke="none" stroke-width="0"/>
<circle cx="844.1949012022418" cy="603.8550427150649" fill="blue" r="25" stroke="none"/>
<circle cx="1024.0290888208356" cy="659.5000011607126" fill="blue" r="25" stroke="none"/>
<circle cx="1203.8721556095245" cy="603.8837466581251" fill="blue" r="25" stroke="none"/>
<circle cx="1024" cy="1024" fill="none" r="1020" stroke="black" stroke-width="40"/>
<line stroke="black" stroke-width="8" x1="1079.1557088662516" x2="1428.6592573088078" y1="1486.287295835828" y2="87.70363373860914"/>
<line stroke="black" stroke-width="8" x1="1215.7392432341774" x2="2043.4992907253045" y1="1584.5569005456618" y2="1055.9561607612795"/>
</svg>