<svg viewBox="0 0 2048 2048" xmlns="http://www.w3.org/2000/svg">
<rect fill="yellow" height="2048" stroke="none" width="2048" x="0" y="0"/>
<circle cx="1024" cy="1024" fill="orange" r="1000" stroke="none"/>
<path d="M740.9492,1669.6836 A705,705,0,0,0,740.9492,1669.6836 A285.5,285.5,0,0,1,1307.0508,1669.6836 A705,705,0,0,0,1307.1023,378.33902 A285.5,285.5,0,0,1,741.0008,378.29385 A705,705,0,0,0,740.9492,1669.6836 z" fill="black" stroke="none" stroke-width="0"/>
<path d="M717.89606,1534.221 A595,595,0,0,0,717.89606,1534.221 A351.5,351.5,0,0,1,1330.104,1534.221 A595,595,0,0,0,1438.7161,597.3437 A487.5,487.5,0,0,1,609.3521,597.27747 A595,595,0,0,0,717.89606,1534.221 z" fill="green" stroke="none" stroke-width="0"/>
<circle cx="1024" cy="1707" fill="none" r="97.5" stroke="red" stroke-width="49.5px"/>
<circle cx="1249.2135098079154" cy="1481.7864901920846" fill="purple" r="20" stroke="none"/>
<circle cx="1162.909843870647" cy="1420.3882324889075" fill="purple" r="20" stroke="none"/>
<path d="M1363.7859,535.5632 A391.5,391.5,0,0,1,684.29205,535.509 A595,595,0,0,1,717.93677,513.7547 A351.5,351.5,0,0,0,1330.1447,513.8035 A595,595,0,0,1,1363.7859,535.5632 z" fill="green" stroke="none" stroke-width="0"/>
<circle cx="1877.901718442339" cy="1292.7654230615528" fill="purple" r="20" stroke="none"/>
<circle cx="1481.7864901920846" cy="1249.2135098079154" fill="purple" r="20" stroke="none"/>
<circle cx="1781.2523841213194" cy="1333.7238018820963" fill="purple" r="20" stroke="none"/>
<circle cx="1024" cy="1024" fill="none" r="1020" stroke="black" stroke-width="40"/>
<line stroke="black" stroke-width="8" x1="1249.2135098079154" x2="1481.7864901920846" y1="1481.7864901920846" y2="1249.2135098079154"/>
<line stroke="black" stroke-width="8" x1="1781.2523841213194" x2="1850.3509644186672" y1="1333.7238018820963" y2="1621.9499005805908"/>
<line stroke="black" stroke-width="8" x1="1162.909843870647" x2="1717.5251106412834" y1="1420.3882324889075" y2="276.054199216283"/>
<line stroke="black" stroke-width="8" x1="1877.901718442339" x2="1961.916524395096" y1="1292.7654230615528" y2="1424.88975200998"/>
</svg>