<svg viewBox="0 0 512 512" xmlns="http://www.w3.org/2000/svg">
<path d="M232.47073,454.6111 A200,200,0,0,0,232.47073,454.6111 A30,30,0,0,1,279.52927,454.6111 A200,200,0,0,0,437.61945,339.75186 A30,30,0,0,1,452.16135,294.99655 A200,200,0,0,0,391.77628,109.15039 A30,30,0,0,1,353.7051,81.49008 A200,200,0,0,0,158.29489,81.49008 A30,30,0,0,1,120.22374,109.15039 A200,200,0,0,0,59.838665,294.99655 A30,30,0,1,1,74.380554,339.75186 A200,200,0,0,0,232.47073,454.6111 z" fill="green" stroke="black" stroke-width="3"/>
</svg>